<?xml version="1.0" standalone="no"?><svg xmlns="http://www.w3.org/2000/svg" viewBox="0 0 1440 320"><path fill="#273036" fill-opacity="1" d="M0,32L30,37.3C60,43,120,53,180,74.7C240,96,300,128,360,154.7C420,181,480,203,540,224C600,245,660,267,720,277.3C780,288,840,288,900,240C960,192,1020,96,1080,74.7C1140,53,1200,107,1260,128C1320,149,1380,139,1410,133.3L1440,128L1440,0L1410,0C1380,0,1320,0,1260,0C1200,0,1140,0,1080,0C1020,0,960,0,900,0C840,0,780,0,720,0C660,0,600,0,540,0C480,0,420,0,360,0C300,0,240,0,180,0C120,0,60,0,30,0L0,0Z"></path></svg>